# xmcd CD database file
#
# Track frame offsets:
#	150
#	24891
#	47627
#	72083
#	95412
#	119527
#	140300
#	163064
#	181776
#	208145
#	230311
#	252954
#	276648
#	301138
#
# Disc length: 4165 seconds
#
# Revision: 2
# Processed by: cddbd v1.5PL3 Copyright (c) Steve Scherf et al.
# Submitted via: CDex 1.51
#
DISCID=bf10430e
DTITLE=Various Artist - "Noël" - Sampler
DYEAR=1997
DGENRE=New Age
TTITLE0=Giovanni Lodigiani_The Awakening of the Forest
TTITLE1=Religion Mystique_After the moon
TTITLE2=Brazilian Love Affair_Natureza Humana (vibrazioni mix)
TTITLE3=Alphonse Mouzon_Two Lonely Hearts
TTITLE4=MacDowell and Krell_Island of Green
TTITLE5=Karen Matheson_The Dreaming Sea
TTITLE6=Digital Experience_Oxygène 7
TTITLE7=Chris Hinze_Mantras and Names Remix II
TTITLE8=Religion Mystique_Southern Lights
TTITLE9=Asiabeat and Friends_Temple of Dreams
TTITLE10=Stefano Sposetti_You are still here (dedicated to Emil)
TTITLE11=Yogeshwara_Dancing Circle
TTITLE12=Premartha_Real Home
TTITLE13=Peter Pritchard_High Blue Sky
EXTD=YEAR: 1997
EXTT0=
EXTT1=
EXTT2=
EXTT3=
EXTT4=
EXTT5=
EXTT6=
EXTT7=
EXTT8=
EXTT9=
EXTT10=
EXTT11=
EXTT12=
EXTT13=
PLAYORDER=
